  0
SECTION
  2
HEADER
  9
$ACADVER
  1
AC1009
  9
$INSBASE
 10
0.0
 20
0.0
 30
0.0
  9
$EXTMIN
 10
3.588653
 20
2.938289
 30
-2.082083
  9
$EXTMAX
 10
7.769049
 20
7.102454
 30
3.67236
  9
$LIMMIN
 10
0.0
 20
0.0
  9
$LIMMAX
 10
12.0
 20
9.0
  9
$ORTHOMODE
 70
     0
  9
$REGENMODE
 70
     1
  9
$FILLMODE
 70
     1
  9
$QTEXTMODE
 70
     0
  9
$MIRRTEXT
 70
     1
  9
$DRAGMODE
 70
     2
  9
$LTSCALE
 40
1.0
  9
$OSMODE
 70
     0
  9
$ATTMODE
 70
     1
  9
$TEXTSIZE
 40
0.2
  9
$TRACEWID
 40
0.05
  9
$TEXTSTYLE
  7
STANDARD
  9
$CLAYER
  8
0
  9
$CELTYPE
  6
BYLAYER
  9
$CECOLOR
 62
   256
  9
$DIMSCALE
 40
1.0
  9
$DIMASZ
 40
0.18
  9
$DIMEXO
 40
0.0625
  9
$DIMDLI
 40
0.38
  9
$DIMRND
 40
0.0
  9
$DIMDLE
 40
0.0
  9
$DIMEXE
 40
0.18
  9
$DIMTP
 40
0.0
  9
$DIMTM
 40
0.0
  9
$DIMTXT
 40
0.18
  9
$DIMCEN
 40
0.09
  9
$DIMTSZ
 40
0.0
  9
$DIMTOL
 70
     0
  9
$DIMLIM
 70
     0
  9
$DIMTIH
 70
     1
  9
$DIMTOH
 70
     1
  9
$DIMSE1
 70
     0
  9
$DIMSE2
 70
     0
  9
$DIMTAD
 70
     0
  9
$DIMZIN
 70
     0
  9
$DIMBLK
  1

  9
$DIMASO
 70
     1
  9
$DIMSHO
 70
     1
  9
$DIMPOST
  1

  9
$DIMAPOST
  1

  9
$DIMALT
 70
     0
  9
$DIMALTD
 70
     2
  9
$DIMALTF
 40
25.4
  9
$DIMLFAC
 40
1.0
  9
$DIMTOFL
 70
     0
  9
$DIMTVP
 40
0.0
  9
$DIMTIX
 70
     0
  9
$DIMSOXD
 70
     0
  9
$DIMSAH
 70
     0
  9
$DIMBLK1
  1

  9
$DIMBLK2
  1

  9
$DIMSTYLE
  2
*UNNAMED
  9
$DIMCLRD
 70
     0
  9
$DIMCLRE
 70
     0
  9
$DIMCLRT
 70
     0
  9
$DIMTFAC
 40
1.0
  9
$DIMGAP
 40
0.09
  9
$LUNITS
 70
     2
  9
$LUPREC
 70
     4
  9
$AXISMODE
 70
     0
  9
$AXISUNIT
 10
0.0
 20
0.0
  9
$SKETCHINC
 40
0.1
  9
$FILLETRAD
 40
0.0
  9
$AUNITS
 70
     0
  9
$AUPREC
 70
     0
  9
$MENU
  1
acad
  9
$ELEVATION
 40
0.0
  9
$PELEVATION
 40
0.0
  9
$THICKNESS
 40
0.0
  9
$LIMCHECK
 70
     0
  9
$BLIPMODE
 70
     1
  9
$CHAMFERA
 40
0.0
  9
$CHAMFERB
 40
0.0
  9
$SKPOLY
 70
     0
  9
$TDCREATE
 40
2448453.576792592
  9
$TDUPDATE
 40
2448453.576792592
  9
$TDINDWG
 40
0.0000000000
  9
$TDUSRTIMER
 40
0.0000000000
  9
$USRTIMER
 70
     1
  9
$ANGBASE
 50
0.0
  9
$ANGDIR
 70
     0
  9
$PDMODE
 70
     0
  9
$PDSIZE
 40
0.0
  9
$PLINEWID
 40
0.0
  9
$COORDS
 70
     0
  9
$SPLFRAME
 70
     0
  9
$SPLINETYPE
 70
     6
  9
$SPLINESEGS
 70
     8
  9
$ATTDIA
 70
     0
  9
$ATTREQ
 70
     1
  9
$HANDLING
 70
     0
  9
$HANDSEED
  5
0
  9
$SURFTAB1
 70
     6
  9
$SURFTAB2
 70
     6
  9
$SURFTYPE
 70
     6
  9
$SURFU
 70
     6
  9
$SURFV
 70
     6
  9
$UCSNAME
  2

  9
$UCSORG
 10
0.0
 20
0.0
 30
0.0
  9
$UCSXDIR
 10
1.0
 20
0.0
 30
0.0
  9
$UCSYDIR
 10
0.0
 20
1.0
 30
0.0
  9
$PUCSNAME
  2

  9
$PUCSORG
 10
0.0
 20
0.0
 30
0.0
  9
$PUCSXDIR
 10
1.0
 20
0.0
 30
0.0
  9
$PUCSYDIR
 10
0.0
 20
1.0
 30
0.0
  9
$USERI1
 70
     0
  9
$USERI2
 70
     0
  9
$USERI3
 70
     0
  9
$USERI4
 70
     0
  9
$USERI5
 70
     0
  9
$USERR1
 40
0.0
  9
$USERR2
 40
0.0
  9
$USERR3
 40
0.0
  9
$USERR4
 40
0.0
  9
$USERR5
 40
0.0
  9
$WORLDVIEW
 70
     1
  9
$SHADEDGE
 70
     3
  9
$SHADEDIF
 70
    70
  9
$TILEMODE
 70
     1
  9
$MAXACTVP
 70
    16
  9
$PINSBASE
 10
0.0
 20
0.0
 30
0.0
  9
$PLIMCHECK
 70
     0
  9
$PEXTMIN
 10
1.000000E+20
 20
1.000000E+20
 30
1.000000E+20
  9
$PEXTMAX
 10
-1.000000E+20
 20
-1.000000E+20
 30
-1.000000E+20
  9
$PLIMMIN
 10
0.0
 20
0.0
  9
$PLIMMAX
 10
12.0
 20
9.0
  9
$UNITMODE
 70
     0
  9
$VISRETAIN
 70
     0
  0
ENDSEC
  0
SECTION
  2
TABLES
  0
TABLE
  2
VPORT
 70
     3
  0
VPORT
  2
*ACTIVE
 70
     0
 10
0.0
 20
0.0
 11
1.0
 21
1.0
 12
2.17961
 22
-3.718711
 13
0.0
 23
0.0
 14
1.0
 24
1.0
 15
0.0
 25
0.0
 16
1.0
 26
1.0
 36
1.0
 17
0.0
 27
0.0
 37
0.0
 40
8.105136
 41
1.380723
 42
50.0
 43
0.0
 44
0.0
 50
0.0
 51
0.0
 71
     0
 72
   100
 73
     1
 74
     1
 75
     0
 76
     0
 77
     0
 78
     0
  0
ENDTAB
  0
TABLE
  2
LTYPE
 70
     1
  0
LTYPE
  2
CONTINUOUS
 70
    64
  3
Solid line
 72
    65
 73
     0
 40
0.0
  0
ENDTAB
  0
TABLE
  2
LAYER
 70
     1
  0
LAYER
  2
0
 70
     0
 62
     7
  6
CONTINUOUS
  0
ENDTAB
  0
TABLE
  2
STYLE
 70
     1
  0
STYLE
  2
STANDARD
 70
     0
 40
0.0
 41
1.0
 50
0.0
 71
     0
 42
0.2
  3
txt
  4

  0
ENDTAB
  0
TABLE
  2
VIEW
 70
     0
  0
ENDTAB
  0
TABLE
  2
UCS
 70
     0
  0
ENDTAB
  0
TABLE
  2
APPID
 70
     1
  0
APPID
  2
ACAD
 70
    64
  0
ENDTAB
  0
TABLE
  2
DIMSTYLE
 70
     0
  0
ENDTAB
  0
ENDSEC
  0
SECTION
  2
BLOCKS
  0
ENDSEC
  0
SECTION
  2
ENTITIES
  0
POLYLINE
  8
0
 62
     1
 66
     1
 10
0.0
 20
0.0
 30
0.0
 70
    17
 71
     8
 72
     9
  0
VERTEX
  8
0
 62
     1
 10
5.670736
 20
5.020372
 30
-2.082083
 70
    64
  0
VERTEX
  8
0
 62
     1
 10
6.07693
 20
5.020372
 30
-2.042076
 70
    64
  0
VERTEX
  8
0
 62
     1
 10
6.467514
 20
5.020372
 30
-1.923593
 70
    64
  0
VERTEX
  8
0
 62
     1
 10
6.827479
 20
5.020372
 30
-1.731188
 70
    64
  0
VERTEX
  8
0
 62
     1
 10
7.142991
 20
5.020372
 30
-1.472255
 70
    64
  0
VERTEX
  8
0
 62
     1
 10
7.401924
 20
5.020372
 30
-1.156743
 70
    64
  0
VERTEX
  8
0
 62
     1
 10
7.594329
 20
5.020372
 30
-0.796779
 70
    64
  0
VERTEX
  8
0
 62
     1
 10
7.712812
 20
5.020372
 30
-0.406194
 70
    64
  0
VERTEX
  8
0
 62
     1
 10
7.752818
 20
5.020372
 30
0.0
 70
    64
  0
VERTEX
  8
0
 62
     1
 10
5.670736
 20
5.020372
 30
-2.082083
 70
    64
  0
VERTEX
  8
0
 62
     1
 10
5.957959
 20
4.733149
 30
-2.042076
 70
    64
  0
VERTEX
  8
0
 62
     1
 10
6.234143
 20
4.456964
 30
-1.923593
 70
    64
  0
VERTEX
  8
0
 62
     1
 10
6.488677
 20
4.202431
 30
-1.731188
 70
    64
  0
VERTEX
  8
0
 62
     1
 10
6.711777
 20
3.97933
 30
-1.472255
 70
    64
  0
VERTEX
  8
0
 62
     1
 10
6.894871
 20
3.796237
 30
-1.156743
 70
    64
  0
VERTEX
  8
0
 62
     1
 10
7.030922
 20
3.660186
 30
-0.796779
 70
    64
  0
VERTEX
  8
0
 62
     1
 10
7.114702
 20
3.576406
 30
-0.406194
 70
    64
  0
VERTEX
  8
0
 62
     1
 10
7.142991
 20
3.548117
 30
0.0
 70
    64
  0
VERTEX
  8
0
 62
     1
 10
5.670736
 20
5.020372
 30
-2.082083
 70
    64
  0
VERTEX
  8
0
 62
     1
 10
5.670736
 20
4.614178
 30
-2.042076
 70
    64
  0
VERTEX
  8
0
 62
     1
 10
5.670736
 20
4.223593
 30
-1.923593
 70
    64
  0
VERTEX
  8
0
 62
     1
 10
5.670736
 20
3.863629
 30
-1.731188
 70
    64
  0
VERTEX
  8
0
 62
     1
 10
5.670736
 20
3.548117
 30
-1.472255
 70
    64
  0
VERTEX
  8
0
 62
     1
 10
5.670736
 20
3.289183
 30
-1.156743
 70
    64
  0
VERTEX
  8
0
 62
     1
 10
5.670736
 20
3.096778
 30
-0.796779
 70
    64
  0
VERTEX
  8
0
 62
     1
 10
5.670736
 20
2.978296
 30
-0.406194
 70
    64
  0
VERTEX
  8
0
 62
     1
 10
5.670736
 20
2.938289
 30
0.0
 70
    64
  0
VERTEX
  8
0
 62
     1
 10
5.670736
 20
5.020372
 30
-2.082083
 70
    64
  0
VERTEX
  8
0
 62
     1
 10
5.383513
 20
4.733149
 30
-2.042076
 70
    64
  0
VERTEX
  8
0
 62
     1
 10
5.107328
 20
4.456964
 30
-1.923593
 70
    64
  0
VERTEX
  8
0
 62
     1
 10
4.852795
 20
4.202431
 30
-1.731188
 70
    64
  0
VERTEX
  8
0
 62
     1
 10
4.629695
 20
3.97933
 30
-1.472255
 70
    64
  0
VERTEX
  8
0
 62
     1
 10
4.446601
 20
3.796237
 30
-1.156743
 70
    64
  0
VERTEX
  8
0
 62
     1
 10
4.31055
 20
3.660186
 30
-0.796779
 70
    64
  0
VERTEX
  8
0
 62
     1
 10
4.22677
 20
3.576406
 30
-0.406194
 70
    64
  0
VERTEX
  8
0
 62
     1
 10
4.198481
 20
3.548117
 30
0.0
 70
    64
  0
VERTEX
  8
0
 62
     1
 10
5.670736
 20
5.020372
 30
-2.082083
 70
    64
  0
VERTEX
  8
0
 62
     1
 10
5.264542
 20
5.020372
 30
-2.042076
 70
    64
  0
VERTEX
  8
0
 62
     1
 10
4.873957
 20
5.020372
 30
-1.923593
 70
    64
  0
VERTEX
  8
0
 62
     1
 10
4.513993
 20
5.020372
 30
-1.731188
 70
    64
  0
VERTEX
  8
0
 62
     1
 10
4.198481
 20
5.020372
 30
-1.472255
 70
    64
  0
VERTEX
  8
0
 62
     1
 10
3.939547
 20
5.020372
 30
-1.156743
 70
    64
  0
VERTEX
  8
0
 62
     1
 10
3.747142
 20
5.020372
 30
-0.796779
 70
    64
  0
VERTEX
  8
0
 62
     1
 10
3.62866
 20
5.020372
 30
-0.406194
 70
    64
  0
VERTEX
  8
0
 62
     1
 10
3.588653
 20
5.020372
 30
0.0
 70
    64
  0
VERTEX
  8
0
 62
     1
 10
5.670736
 20
5.020372
 30
-2.082083
 70
    64
  0
VERTEX
  8
0
 62
     1
 10
5.383513
 20
5.307594
 30
-2.042076
 70
    64
  0
VERTEX
  8
0
 62
     1
 10
5.107328
 20
5.583779
 30
-1.923593
 70
    64
  0
VERTEX
  8
0
 62
     1
 10
4.852795
 20
5.838313
 30
-1.731188
 70
    64
  0
VERTEX
  8
0
 62
     1
 10
4.629695
 20
6.061413
 30
-1.472255
 70
    64
  0
VERTEX
  8
0
 62
     1
 10
4.446601
 20
6.244507
 30
-1.156743
 70
    64
  0
VERTEX
  8
0
 62
     1
 10
4.31055
 20
6.380558
 30
-0.796779
 70
    64
  0
VERTEX
  8
0
 62
     1
 10
4.22677
 20
6.464337
 30
-0.406194
 70
    64
  0
VERTEX
  8
0
 62
     1
 10
4.198481
 20
6.492626
 30
0.0
 70
    64
  0
VERTEX
  8
0
 62
     1
 10
5.670736
 20
5.020372
 30
-2.082083
 70
    64
  0
VERTEX
  8
0
 62
     1
 10
5.670736
 20
5.426566
 30
-2.042076
 70
    64
  0
VERTEX
  8
0
 62
     1
 10
5.670736
 20
5.81715
 30
-1.923593
 70
    64
  0
VERTEX
  8
0
 62
     1
 10
5.670736
 20
6.177115
 30
-1.731188
 70
    64
  0
VERTEX
  8
0
 62
     1
 10
5.670736
 20
6.492626
 30
-1.472255
 70
    64
  0
VERTEX
  8
0
 62
     1
 10
5.670736
 20
6.75156
 30
-1.156743
 70
    64
  0
VERTEX
  8
0
 62
     1
 10
5.670736
 20
6.943965
 30
-0.796779
 70
    64
  0
VERTEX
  8
0
 62
     1
 10
5.670736
 20
7.062448
 30
-0.406194
 70
    64
  0
VERTEX
  8
0
 62
     1
 10
5.670736
 20
7.102454
 30
0.0
 70
    64
  0
VERTEX
  8
0
 62
     1
 10
5.670736
 20
5.020372
 30
-2.082083
 70
    64
  0
VERTEX
  8
0
 62
     1
 10
5.957959
 20
5.307594
 30
-2.042076
 70
    64
  0
VERTEX
  8
0
 62
     1
 10
6.234143
 20
5.583779
 30
-1.923593
 70
    64
  0
VERTEX
  8
0
 62
     1
 10
6.488677
 20
5.838313
 30
-1.731188
 70
    64
  0
VERTEX
  8
0
 62
     1
 10
6.711777
 20
6.061413
 30
-1.472255
 70
    64
  0
VERTEX
  8
0
 62
     1
 10
6.894871
 20
6.244507
 30
-1.156743
 70
    64
  0
VERTEX
  8
0
 62
     1
 10
7.030922
 20
6.380558
 30
-0.796779
 70
    64
  0
VERTEX
  8
0
 62
     1
 10
7.114702
 20
6.464337
 30
-0.406194
 70
    64
  0
VERTEX
  8
0
 62
     1
 10
7.142991
 20
6.492626
 30
0.0
 70
    64
  0
SEQEND
  8
0
 62
     1
  0
POLYLINE
  8
0
 62
   254
 66
     1
 10
0.0
 20
0.0
 30
0.0
 70
    48
 71
     2
 72
     8
  0
VERTEX
  8
0
 62
   254
 10
7.769049
 20
5.020764
 30
0.0
 70
    64
  0
VERTEX
  8
0
 62
   254
 10
7.161869
 20
6.486625
 30
0.0
 70
    64
  0
VERTEX
  8
0
 62
   254
 10
5.696008
 20
7.093804
 30
0.0
 70
    64
  0
VERTEX
  8
0
 62
   254
 10
4.230146
 20
6.486625
 30
0.0
 70
    64
  0
VERTEX
  8
0
 62
   254
 10
3.622967
 20
5.020764
 30
0.0
 70
    64
  0
VERTEX
  8
0
 62
   254
 10
4.230146
 20
3.554902
 30
0.0
 70
    64
  0
VERTEX
  8
0
 62
   254
 10
5.696008
 20
2.947723
 30
0.0
 70
    64
  0
VERTEX
  8
0
 62
   254
 10
7.161869
 20
3.554902
 30
0.0
 70
    64
  0
VERTEX
  8
0
 62
   254
 10
5.880257
 20
5.020764
 30
3.0
 70
    64
  0
VERTEX
  8
0
 62
   254
 10
5.826292
 20
5.151047
 30
3.0
 70
    64
  0
VERTEX
  8
0
 62
   254
 10
5.696008
 20
5.205013
 30
3.0
 70
    64
  0
VERTEX
  8
0
 62
   254
 10
5.565724
 20
5.151047
 30
3.0
 70
    64
  0
VERTEX
  8
0
 62
   254
 10
5.511759
 20
5.020764
 30
3.0
 70
    64
  0
VERTEX
  8
0
 62
   254
 10
5.565724
 20
4.89048
 30
3.0
 70
    64
  0
VERTEX
  8
0
 62
   254
 10
5.696008
 20
4.836514
 30
3.0
 70
    64
  0
VERTEX
  8
0
 62
   254
 10
5.826292
 20
4.89048
 30
3.0
 70
    64
  0
SEQEND
  8
0
 62
   254
  0
POLYLINE
  8
0
 62
   114
 39
1.0
 66
     1
 10
0.0
 20
0.0
 30
2.67236
 70
     1
  0
VERTEX
  8
0
 62
   114
 39
1.0
 10
5.175969
 20
5.629213
 30
2.67236
  0
VERTEX
  8
0
 62
   114
 39
1.0
 10
6.143992
 20
5.629213
 30
2.67236
  0
VERTEX
  8
0
 62
   114
 39
1.0
 10
6.143992
 20
4.408512
 30
2.67236
  0
VERTEX
  8
0
 62
   114
 39
1.0
 10
5.175969
 20
4.408512
 30
2.67236
  0
SEQEND
  8
0
 62
   114
 39
1.0
  0
ENDSEC
  0
EOF
